# xmcd CD database file
#
# Track frame offsets:
#	150
#	16644
#	32429
#	47451
#	64202
#	97390
#	125370
#	162935
#	185252
#	204173
#
# Disc length: 2980 seconds
#
# Revision: 2
# Processed by: cddbd v1.4b41PL1 Copyright (c) Steve Scherf et al.
# Submitted via: Feurio! 1.50.2ß - http://www.feurio.com
#
DISCID=770ba20a
DTITLE=Various Artist - Unbekannte CD #770BA20A0908A073
DYEAR=1900
DGENRE=
TTITLE0=Bastiaan Ragas - Still Believe
TTITLE1=Britney Spears - Lucky (dance)
TTITLE2=Blanck and Jones - Cream 3:20
TTITLE3=Blanck and Jones - Cream 3:43
TTITLE4=Blanck and Jones - Cream 7:22
TTITLE5=Blanck and Jones - Cream 6:13
TTITLE6=Blanck and Jones - Cream 8:20
TTITLE7=Bryan Ferry - Avalon
TTITLE8=Bryan Ferry - More than this
TTITLE9=Bryan Ferry - Slave to love
EXTD=
EXTT0=
EXTT1=
EXTT2=
EXTT3=
EXTT4=
EXTT5=
EXTT6=
EXTT7=
EXTT8=
EXTT9=
PLAYORDER=
